<svg width="69" height="69" viewBox="0 0 69 69" fill="none" xmlns="http://www.w3.org/2000/svg">
<g clip-path="url(#clip0_1_82)">
<path d="M69 0H0V69H69V0Z" fill="#141414"/>
<g clip-path="url(#clip1_1_82)">
<mask id="mask0_1_82" style="mask-type:luminance" maskUnits="userSpaceOnUse" x="10" y="11" width="49" height="48">
<path d="M59 11H10V59H59V11Z" fill="white"/>
</mask>
<g mask="url(#mask0_1_82)">
<path d="M30.7197 45.6924C24.4033 44.9268 19.9531 40.3808 19.9531 34.4951C19.9531 32.1026 20.8145 29.5186 22.25 27.7959C21.6279 26.2168 21.7236 22.8672 22.4414 21.4795C24.3554 21.2402 26.9394 22.2451 28.4707 23.6328C30.289 23.0586 32.2031 22.7715 34.5478 22.7715C36.8926 22.7715 38.8067 23.0586 40.5293 23.585C42.0127 22.2451 44.6446 21.2402 46.5586 21.4795C47.2285 22.7715 47.3242 26.1211 46.7021 27.7481C48.2334 29.5664 49.0468 32.0068 49.0468 34.4951C49.0468 40.3808 44.5967 44.8311 38.1845 45.6446C39.8115 46.6973 40.9121 48.9941 40.9121 51.626V56.6026C40.9121 58.0381 42.1084 58.8516 43.5439 58.2774C52.2051 54.9756 59 46.3144 59 35.5957C59 22.0537 47.9941 11 34.4522 11C20.9102 11 10 22.0537 10 35.5957C10 46.2188 16.7471 55.0234 25.8389 58.3252C27.1308 58.8037 28.375 57.9424 28.375 56.6504V52.8223C27.7051 53.1094 26.8438 53.3008 26.0781 53.3008C22.9199 53.3008 21.0537 51.5782 19.7139 48.3721C19.1875 47.0801 18.6133 46.3144 17.5127 46.1709C16.9385 46.123 16.747 45.8838 16.747 45.5967C16.747 45.0224 17.7041 44.5918 18.6611 44.5918C20.0489 44.5918 21.2451 45.4532 22.4893 47.2237C23.4463 48.6114 24.4512 49.2334 25.6475 49.2334C26.8438 49.2334 27.6094 48.8027 28.7099 47.7021C29.5234 46.8886 30.1455 46.1709 30.7197 45.6924Z" fill="white"/>
</g>
</g>
</g>
<defs>
<clipPath id="clip0_1_82">
<rect width="69" height="69" rx="8" fill="white"/>
</clipPath>
<clipPath id="clip1_1_82">
<rect width="49" height="48" fill="white" transform="translate(10 11)"/>
</clipPath>
</defs>
</svg>
